<svg xmlns="http://www.w3.org/2000/svg" viewBox="0 0 512 512">
  <defs>
    <linearGradient id="band" x1="0" x2="1">
      <stop offset="0" stop-color="#e4ecb4" stop-opacity="0"/>
      <stop offset=".18" stop-color="#e4ecb4"/>
      <stop offset=".82" stop-color="#e4ecb4"/>
      <stop offset="1" stop-color="#e4ecb4" stop-opacity="0"/>
    </linearGradient>
  </defs>
  <rect width="512" height="512" rx="116" fill="#2f4a35"/>
  <!-- leaf: slightly asymmetric, tip drifting right -->
  <path d="M262 96c-74 40-122 108-118 186 3 66 44 116 106 136 6 2 11 2 17 0 58-22 96-74 100-138 5-80-38-146-105-184z" fill="#f2ede3"/>
  <!-- midrib and alternating veins -->
  <g stroke="#2f4a35" stroke-linecap="round" fill="none">
    <path d="M262 132c-6 90-8 186-4 266" stroke-width="10"/>
    <path d="M261 196c-24-10-44-26-58-46M260 244c30-12 52-30 66-54M259 292c-30-10-56-30-74-56M259 340c28-10 50-28 64-50" stroke-width="7"/>
  </g>
  <!-- the scan line -->
  <rect x="96" y="268" width="320" height="9" rx="4.5" fill="url(#band)"/>
</svg>
